<svg width="27" height="27" viewBox="0 0 27 27" fill="none" xmlns="http://www.w3.org/2000/svg">
<path d="M13.1445 0.794434C5.88504 0.794434 0 6.67947 0 13.9389C0 20.1031 4.24408 25.2757 9.96928 26.6964V17.9558H7.2589V13.9389H9.96928V12.208C9.96928 7.73418 11.9941 5.66051 16.3864 5.66051C17.2192 5.66051 18.6562 5.82403 19.244 5.98702V9.62804C18.9338 9.59544 18.3949 9.57914 17.7256 9.57914C15.5704 9.57914 14.7376 10.3957 14.7376 12.5182V13.9389H19.0311L18.2934 17.9558H14.7376V26.9871C21.2462 26.2011 26.2894 20.6594 26.2894 13.9389C26.2889 6.67947 20.4039 0.794434 13.1445 0.794434Z" fill="white"/>
</svg>
