<svg width="27" height="28" viewBox="0 0 27 28" fill="none" xmlns="http://www.w3.org/2000/svg">
<path d="M13.1445 3.16146C16.6565 3.16146 17.0724 3.17687 18.4536 3.23848C19.7372 3.29496 20.4304 3.51061 20.8925 3.69032C21.5035 3.92651 21.9451 4.21405 22.4021 4.67102C22.8642 5.13313 23.1466 5.56957 23.3828 6.18058C23.5625 6.64269 23.7781 7.34099 23.8346 8.61949C23.8962 10.0058 23.9116 10.4217 23.9116 13.9286C23.9116 17.4407 23.8962 17.8566 23.8346 19.2378C23.7781 20.5214 23.5625 21.2146 23.3828 21.6767C23.1466 22.2877 22.859 22.7292 22.4021 23.1862C21.9399 23.6483 21.5035 23.9307 20.8925 24.1669C20.4304 24.3466 19.7321 24.5623 18.4536 24.6188C17.0673 24.6804 16.6514 24.6958 13.1445 24.6958C9.63242 24.6958 9.21652 24.6804 7.83533 24.6188C6.55169 24.5623 5.85853 24.3466 5.39642 24.1669C4.7854 23.9307 4.34383 23.6432 3.88686 23.1862C3.42475 22.7241 3.14235 22.2877 2.90616 21.6767C2.72645 21.2146 2.5108 20.5163 2.45432 19.2378C2.3927 17.8514 2.3773 17.4355 2.3773 13.9286C2.3773 10.4166 2.3927 10.0007 2.45432 8.61949C2.5108 7.33586 2.72645 6.64269 2.90616 6.18058C3.14235 5.56957 3.42988 5.128 3.88686 4.67102C4.34897 4.20891 4.7854 3.92651 5.39642 3.69032C5.85853 3.51061 6.55682 3.29496 7.83533 3.23848C9.21652 3.17687 9.63242 3.16146 13.1445 3.16146ZM13.1445 0.794434C9.57594 0.794434 9.12923 0.809837 7.7275 0.871452C6.3309 0.933067 5.37074 1.15899 4.53894 1.48246C3.6712 1.82134 2.93696 2.26805 2.20786 3.00229C1.47361 3.7314 1.02691 4.46564 0.688026 5.32825C0.364549 6.16518 0.138633 7.1202 0.0770187 8.5168C0.0154041 9.92367 0 10.3704 0 13.9389C0 17.5074 0.0154041 17.9541 0.0770187 19.3558C0.138633 20.7524 0.364549 21.7126 0.688026 22.5444C1.02691 23.4121 1.47361 24.1464 2.20786 24.8755C2.93696 25.6046 3.6712 26.0564 4.53381 26.3902C5.37074 26.7137 6.32577 26.9396 7.72237 27.0012C9.1241 27.0628 9.5708 27.0782 13.1393 27.0782C16.7078 27.0782 17.1545 27.0628 18.5563 27.0012C19.9529 26.9396 20.913 26.7137 21.7448 26.3902C22.6074 26.0564 23.3417 25.6046 24.0708 24.8755C24.7999 24.1464 25.2517 23.4121 25.5855 22.5495C25.909 21.7126 26.1349 20.7576 26.1965 19.361C26.2581 17.9592 26.2735 17.5125 26.2735 13.944C26.2735 10.3755 26.2581 9.92881 26.1965 8.52707C26.1349 7.13047 25.909 6.17031 25.5855 5.33851C25.262 4.46564 24.8153 3.7314 24.0811 3.00229C23.352 2.27319 22.6177 1.82134 21.7551 1.4876C20.9182 1.16412 19.9631 0.938201 18.5665 0.876586C17.1597 0.809837 16.713 0.794434 13.1445 0.794434Z" fill="white"/>
<path d="M13.1445 7.18695C9.41677 7.18695 6.39252 10.2112 6.39252 13.9389C6.39252 17.6666 9.41677 20.6908 13.1445 20.6908C16.8721 20.6908 19.8964 17.6666 19.8964 13.9389C19.8964 10.2112 16.8721 7.18695 13.1445 7.18695ZM13.1445 18.3187C10.7261 18.3187 8.76468 16.3573 8.76468 13.9389C8.76468 11.5205 10.7261 9.55912 13.1445 9.55912C15.5628 9.55912 17.5242 11.5205 17.5242 13.9389C17.5242 16.3573 15.5628 18.3187 13.1445 18.3187Z" fill="white"/>
<path d="M21.7397 6.91991C21.7397 7.79278 21.0311 8.49622 20.1634 8.49622C19.2905 8.49622 18.5871 7.78765 18.5871 6.91991C18.5871 6.04703 19.2956 5.3436 20.1634 5.3436C21.0311 5.3436 21.7397 6.05217 21.7397 6.91991Z" fill="white"/>
</svg>
