<svg width="68" height="58" viewBox="0 0 68 58" fill="none" xmlns="http://www.w3.org/2000/svg">
<path d="M67.9196 12.4859L62.6766 25.1368C62.4936 25.5803 62.0492 25.8505 61.5722 25.8206C60.7221 25.7704 59.8641 25.7475 59.0176 25.7475C49.8092 25.7475 40.0228 28.663 40.0228 34.0591C40.0228 38.4952 46.6333 41.2531 54.1045 42.0935C54.842 42.1771 55.2952 42.941 55.0118 43.6247L49.745 56.3319C49.562 56.7719 49.1149 57.0526 48.638 57.0192C20.9884 55.0814 -0.00756836 45.5422 -0.00756836 34.0591C-0.00756836 30.0595 2.53915 26.2975 7.02627 23.0081C7.91419 22.3569 9.25707 21.7822 10.3316 22.0234C11.2679 22.2328 12.1716 22.6042 12.7436 23.6197C14.0496 25.9376 11.7299 31.2475 10.9564 33.5285C10.6061 34.5554 10.7592 35.6396 11.3735 36.4967C11.9772 37.3406 12.9707 37.844 14.032 37.844C15.3863 37.844 16.65 37.0432 17.2501 35.8024C20.3952 29.3221 22.3964 26.397 24.9008 24.6194C27.3754 22.8682 30.5874 22.0814 37.1777 21.6142C39.0389 21.4804 40.5024 19.9369 40.5068 18.0986C40.5112 16.115 39.1973 15.1752 37.5015 14.8734C36.589 14.7114 34.1074 14.5715 32.2348 14.2398C31.7068 14.1465 31.7085 13.38 32.2339 13.2744C40.2727 11.6534 49.3736 10.7382 59.0176 10.7382C61.706 10.7382 64.3539 10.8086 66.9455 10.9486C67.7164 10.9882 68.2162 11.7758 67.9196 12.4859Z" fill="#0B1215"/>
<path d="M67.9196 12.4859L62.6766 25.1368C62.4936 25.5803 62.0492 25.8505 61.5722 25.8206C60.7221 25.7704 59.8641 25.7475 59.0176 25.7475C49.8092 25.7475 40.0228 28.663 40.0228 34.0591C40.0228 38.4952 46.6333 41.2531 54.1045 42.0935C54.842 42.1771 55.2952 42.941 55.0118 43.6247L49.745 56.3319C49.562 56.7719 49.1149 57.0526 48.638 57.0192C20.9884 55.0814 -0.00756836 45.5422 -0.00756836 34.0591C-0.00756836 30.0595 2.53915 26.2975 7.02627 23.0081C7.91419 22.3569 9.25707 21.7822 10.3316 22.0234C11.2679 22.2328 12.1716 22.6042 12.7436 23.6197C14.0496 25.9376 11.7299 31.2475 10.9564 33.5285C10.6061 34.5554 10.7592 35.6396 11.3735 36.4967C11.9772 37.3406 12.9707 37.844 14.032 37.844C15.3863 37.844 16.65 37.0432 17.2501 35.8024C20.3952 29.3221 22.3964 26.397 24.9008 24.6194C27.3754 22.8682 30.5874 22.0814 37.1777 21.6142C39.0389 21.4804 40.5024 19.9369 40.5068 18.0986C40.5112 16.115 39.1973 15.1752 37.5015 14.8734C36.589 14.7114 34.1074 14.5715 32.2348 14.2398C31.7068 14.1465 31.7085 13.38 32.2339 13.2744C40.2727 11.6534 49.3736 10.7382 59.0176 10.7382C61.706 10.7382 64.3539 10.8086 66.9455 10.9486C67.7164 10.9882 68.2162 11.7758 67.9196 12.4859Z" fill="#F3F4F6"/>
<path d="M60.8532 29.5394L56.9135 39.0461C56.7656 39.4025 56.4075 39.6286 56.0229 39.6022C47.6902 39.0346 42.6918 36.172 42.6918 34.0582C42.6918 29.0713 55.1456 27.8261 60.1105 28.2951C60.7133 28.3523 61.0847 28.9806 60.8532 29.5394Z" fill="#0B1215"/>
<path d="M60.8532 29.5394L56.9135 39.0461C56.7656 39.4025 56.4075 39.6286 56.0229 39.6022C47.6902 39.0346 42.6918 36.172 42.6918 34.0582C42.6918 29.0713 55.1456 27.8261 60.1105 28.2951C60.7133 28.3523 61.0847 28.9806 60.8532 29.5394Z" fill="#F3F4F6"/>
<path d="M38.1721 18.0924C38.1686 18.6292 37.7048 19.2364 37.0114 19.2866C24.2408 20.1903 21.1758 22.3613 15.1522 34.7825C14.9384 35.2198 14.4887 35.5094 14.032 35.5094C13.7187 35.5094 13.4415 35.373 13.2716 35.1389C13.1713 34.999 13.0252 34.6989 13.1687 34.2782C15.1399 28.4614 16.0841 24.4354 14.6928 22.3314C14.0724 21.3906 12.9452 20.75 11.3638 20.2933C9.59235 19.7829 7.25507 19.4995 4.41971 19.2857C3.92955 19.2487 3.57227 18.8721 3.57579 18.3951C3.57579 17.8583 4.04307 17.2511 4.73299 17.201C17.5036 16.2972 20.5686 14.1262 26.5957 1.70504C26.806 1.26768 27.2557 0.978161 27.716 0.978161C28.0292 0.978161 28.3064 1.11456 28.4728 1.34864C28.5757 1.48856 28.7227 1.78864 28.5792 2.20928C26.6045 8.02608 25.6611 12.0521 27.0551 14.1562C27.1114 14.2398 27.1721 14.3234 27.2381 14.4026C28.6822 16.2039 32.1908 16.8138 37.3238 17.201C37.814 17.2379 38.1712 17.6146 38.1712 18.0915L38.1721 18.0924Z" fill="#0B1215"/>
<path d="M38.1721 18.0924C38.1686 18.6292 37.7048 19.2364 37.0114 19.2866C24.2408 20.1903 21.1758 22.3613 15.1522 34.7825C14.9384 35.2198 14.4887 35.5094 14.032 35.5094C13.7187 35.5094 13.4415 35.373 13.2716 35.1389C13.1713 34.999 13.0252 34.6989 13.1687 34.2782C15.1399 28.4614 16.0841 24.4354 14.6928 22.3314C14.0724 21.3906 12.9452 20.75 11.3638 20.2933C9.59235 19.7829 7.25507 19.4995 4.41971 19.2857C3.92955 19.2487 3.57227 18.8721 3.57579 18.3951C3.57579 17.8583 4.04307 17.2511 4.73299 17.201C17.5036 16.2972 20.5686 14.1262 26.5957 1.70504C26.806 1.26768 27.2557 0.978161 27.716 0.978161C28.0292 0.978161 28.3064 1.11456 28.4728 1.34864C28.5757 1.48856 28.7227 1.78864 28.5792 2.20928C26.6045 8.02608 25.6611 12.0521 27.0551 14.1562C27.1114 14.2398 27.1721 14.3234 27.2381 14.4026C28.6822 16.2039 32.1908 16.8138 37.3238 17.201C37.814 17.2379 38.1712 17.6146 38.1712 18.0915L38.1721 18.0924Z" fill="#F3F4F6"/>
</svg>
