<svg width="226" height="84" viewBox="0 0 226 84" fill="none" xmlns="http://www.w3.org/2000/svg">
<path fill-rule="evenodd" clip-rule="evenodd" d="M42 0C18.804 0 0 18.804 0 42C0 65.196 18.804 84 42 84H184C207.196 84 226 65.196 226 42C226 18.804 207.196 0 184 0H42ZM36.5976 53H40.0216L41.3976 45.192H47.1576C51.7336 45.192 55.0616 41.832 55.0616 37.448C55.0616 34.248 53.0456 31.752 49.5256 31.752H40.3416L36.5976 53ZM47.1256 42.408H41.8776L43.2536 34.6H48.5016C50.9336 34.6 52.0216 35.4 52.0216 37.8C52.0216 40.328 50.3576 42.408 47.1256 42.408ZM60.0326 34.6H66.6566C68.8646 34.6 69.8566 35.304 69.8566 37.384C69.8566 39.496 68.5766 41.48 65.2166 41.48H58.8166L60.0326 34.6ZM66.4646 53H69.7926L70.8486 47.08C70.9446 46.568 70.9766 46.12 70.9766 45.736C70.9766 44.072 70.2086 43.208 68.4486 42.824C71.3286 42.12 73.1206 39.624 73.1206 36.776C73.1206 33.832 71.1366 31.752 67.7126 31.752H57.2166L53.4726 53H56.8006L58.3366 44.264H64.1286C66.6246 44.264 67.5526 44.776 67.5526 46.312C67.5526 46.6162 67.5048 46.9443 67.4505 47.317C67.442 47.3755 67.4333 47.4352 67.4246 47.496L66.4646 53ZM71.7226 53H87.4666L87.9786 50.088H75.5626L76.7466 43.304H87.7866L88.2986 40.424H77.2586L78.2826 34.632H90.1866L90.6986 31.752H75.4666L71.7226 53ZM89.7191 44.424H97.4631L97.9111 41.896H90.1671L89.7191 44.424ZM115.777 40.424C115.777 47.272 112.193 50.824 107.585 50.824C104.097 50.824 102.177 49.384 102.177 44.776C102.177 38.408 105.217 34.088 110.529 34.088C113.985 34.088 115.777 35.72 115.777 40.424ZM98.7526 45.096C98.7526 50.6 101.665 53.736 107.073 53.736C114.753 53.736 119.233 48.616 119.233 40.008C119.233 34.408 116.385 31.048 111.073 31.048C103.457 31.048 98.7526 36.776 98.7526 45.096ZM125.158 34.6H131.782C133.99 34.6 134.982 35.304 134.982 37.384C134.982 39.496 133.702 41.48 130.342 41.48H123.942L125.158 34.6ZM131.59 53H134.918L135.974 47.08C136.07 46.568 136.102 46.12 136.102 45.736C136.102 44.072 135.334 43.208 133.574 42.824C136.454 42.12 138.246 39.624 138.246 36.776C138.246 33.832 136.262 31.752 132.838 31.752H122.342L118.598 53H121.926L123.462 44.264H129.254C131.75 44.264 132.678 44.776 132.678 46.312C132.678 46.6163 132.63 46.9444 132.576 47.3172C132.567 47.3757 132.558 47.4352 132.55 47.496L131.59 53ZM145.328 50.216H140.656L143.408 34.6H147.664C151.344 34.6 153.136 35.72 153.136 40.168C153.136 45.96 150.576 50.216 145.328 50.216ZM136.848 53H145.52C151.792 53 156.624 47.4 156.624 40.168C156.624 34.952 153.488 31.752 148.624 31.752H140.592L136.848 53ZM156.004 53H171.748L172.26 50.088H159.844L161.028 43.304H172.068L172.58 40.424H161.54L162.564 34.632H174.468L174.98 31.752H159.748L156.004 53ZM179.376 34.6H186C188.208 34.6 189.2 35.304 189.2 37.384C189.2 39.496 187.92 41.48 184.56 41.48H178.16L179.376 34.6ZM185.808 53H189.136L190.192 47.08C190.288 46.568 190.32 46.12 190.32 45.736C190.32 44.072 189.552 43.208 187.792 42.824C190.672 42.12 192.464 39.624 192.464 36.776C192.464 33.832 190.48 31.752 187.056 31.752H176.56L172.816 53H176.144L177.68 44.264H183.472C185.968 44.264 186.896 44.776 186.896 46.312C186.896 46.6163 186.849 46.9444 186.794 47.3172C186.786 47.3757 186.777 47.4352 186.768 47.496L185.808 53Z" fill="#F3F4F6"/>
</svg>
