<svg width="305" height="40" viewBox="0 0 305 40" fill="none" xmlns="http://www.w3.org/2000/svg">
<path d="M20 0C8.9544 0 0 8.9544 0 20C0 29.3792 6.4576 37.2496 15.1688 39.4112V26.112H11.0448V20H15.1688V17.3664C15.1688 10.5592 18.2496 7.404 24.9328 7.404C26.2 7.404 28.3864 7.6528 29.2808 7.9008V13.4408C28.8088 13.3912 27.9888 13.3664 26.9704 13.3664C23.6912 13.3664 22.424 14.6088 22.424 17.8384V20H28.9568L27.8344 26.112H22.424V39.8536C32.3272 38.6576 40.0008 30.2256 40.0008 20C40 8.9544 31.0456 0 20 0Z" fill="white"/>
<path d="M97.2105 3.17318H102.833L90.5495 17.2123L105 36.3165H93.6854L84.8234 24.7299L74.6833 36.3165H69.0574L82.1957 21.3L68.3333 3.17318H79.9352L87.9457 13.7637L97.2105 3.17318ZM95.2372 32.9511H98.3527L78.2423 6.36173H74.8991L95.2372 32.9511Z" fill="white"/>
<path d="M153.333 3.60156C158.677 3.60156 159.31 3.625 161.411 3.71875C163.365 3.80469 164.419 4.13281 165.122 4.40625C166.052 4.76563 166.724 5.20313 167.419 5.89844C168.122 6.60156 168.552 7.26563 168.911 8.19531C169.185 8.89844 169.513 9.96094 169.599 11.9062C169.693 14.0156 169.716 14.6484 169.716 19.9844C169.716 25.3281 169.693 25.9609 169.599 28.0625C169.513 30.0156 169.185 31.0703 168.911 31.7734C168.552 32.7031 168.115 33.375 167.419 34.0703C166.716 34.7734 166.052 35.2031 165.122 35.5625C164.419 35.8359 163.357 36.1641 161.411 36.25C159.302 36.3438 158.669 36.3672 153.333 36.3672C147.99 36.3672 147.357 36.3438 145.255 36.25C143.302 36.1641 142.247 35.8359 141.544 35.5625C140.615 35.2031 139.943 34.7656 139.247 34.0703C138.544 33.3672 138.115 32.7031 137.755 31.7734C137.482 31.0703 137.154 30.0078 137.068 28.0625C136.974 25.9531 136.951 25.3203 136.951 19.9844C136.951 14.6406 136.974 14.0078 137.068 11.9062C137.154 9.95312 137.482 8.89844 137.755 8.19531C138.115 7.26563 138.552 6.59375 139.247 5.89844C139.951 5.19531 140.615 4.76563 141.544 4.40625C142.247 4.13281 143.31 3.80469 145.255 3.71875C147.357 3.625 147.99 3.60156 153.333 3.60156ZM153.333 0C147.904 0 147.224 0.0234375 145.091 0.117188C142.966 0.210938 141.505 0.554687 140.24 1.04688C138.919 1.5625 137.802 2.24219 136.693 3.35938C135.576 4.46875 134.896 5.58594 134.38 6.89844C133.888 8.17188 133.544 9.625 133.451 11.75C133.357 13.8906 133.333 14.5703 133.333 20C133.333 25.4297 133.357 26.1094 133.451 28.2422C133.544 30.3672 133.888 31.8281 134.38 33.0938C134.896 34.4141 135.576 35.5312 136.693 36.6406C137.802 37.75 138.919 38.4375 140.232 38.9453C141.505 39.4375 142.958 39.7812 145.083 39.875C147.216 39.9688 147.896 39.9922 153.326 39.9922C158.755 39.9922 159.435 39.9688 161.568 39.875C163.693 39.7812 165.154 39.4375 166.419 38.9453C167.732 38.4375 168.849 37.75 169.958 36.6406C171.068 35.5312 171.755 34.4141 172.263 33.1016C172.755 31.8281 173.099 30.375 173.193 28.25C173.286 26.1172 173.31 25.4375 173.31 20.0078C173.31 14.5781 173.286 13.8984 173.193 11.7656C173.099 9.64063 172.755 8.17969 172.263 6.91406C171.771 5.58594 171.091 4.46875 169.974 3.35938C168.865 2.25 167.747 1.5625 166.435 1.05469C165.161 0.5625 163.708 0.21875 161.583 0.125C159.443 0.0234375 158.763 0 153.333 0Z" fill="white"/>
<path d="M153.333 9.72656C147.661 9.72656 143.06 14.3281 143.06 20C143.06 25.6719 147.661 30.2734 153.333 30.2734C159.005 30.2734 163.607 25.6719 163.607 20C163.607 14.3281 159.005 9.72656 153.333 9.72656ZM153.333 26.6641C149.654 26.6641 146.669 23.6797 146.669 20C146.669 16.3203 149.654 13.3359 153.333 13.3359C157.013 13.3359 159.997 16.3203 159.997 20C159.997 23.6797 157.013 26.6641 153.333 26.6641Z" fill="white"/>
<path d="M166.411 9.32024C166.411 10.6484 165.333 11.7187 164.013 11.7187C162.685 11.7187 161.615 10.6406 161.615 9.32024C161.615 7.99211 162.693 6.9218 164.013 6.9218C165.333 6.9218 166.411 7.99993 166.411 9.32024Z" fill="white"/>
<path d="M239.602 12.0001C239.602 12.0001 239.211 9.24226 238.008 8.03133C236.484 6.43758 234.781 6.42976 234 6.33601C228.406 5.92976 220.008 5.92976 220.008 5.92976H219.992C219.992 5.92976 211.594 5.92976 206 6.33601C205.219 6.42976 203.516 6.43758 201.992 8.03133C200.789 9.24226 200.406 12.0001 200.406 12.0001C200.406 12.0001 200 15.2423 200 18.4766V21.5079C200 24.7423 200.398 27.9845 200.398 27.9845C200.398 27.9845 200.789 30.7423 201.984 31.9532C203.508 33.547 205.508 33.4923 206.398 33.6641C209.602 33.9688 220 34.0626 220 34.0626C220 34.0626 228.406 34.047 234 33.6485C234.781 33.5548 236.484 33.547 238.008 31.9532C239.211 30.7423 239.602 27.9845 239.602 27.9845C239.602 27.9845 240 24.7501 240 21.5079V18.4766C240 15.2423 239.602 12.0001 239.602 12.0001ZM215.867 25.1876V13.9454L226.672 19.586L215.867 25.1876Z" fill="white"/>
<path d="M295.121 0H288.38V27.2463C288.38 30.4928 285.787 33.1594 282.56 33.1594C279.334 33.1594 276.741 30.4928 276.741 27.2463C276.741 24.058 279.276 21.4492 282.388 21.3333V14.4928C275.531 14.6087 270 20.2319 270 27.2463C270 34.3189 275.646 40 282.618 40C289.59 40 295.236 34.2609 295.236 27.2463V13.2753C297.771 15.1304 300.883 16.2319 304.167 16.2899V9.44928C299.096 9.27537 295.121 5.10144 295.121 0Z" fill="white"/>
</svg>
