<svg width="966" height="880" viewBox="0 0 966 880" fill="none" xmlns="http://www.w3.org/2000/svg">
<path d="M966 436.143C965.902 449.823 952.953 465.297 933.59 466.575C577.01 489.607 491.428 544.932 323.237 861.476C317.266 872.622 304.71 880 291.958 880C283.21 880 275.471 876.524 270.728 870.559C267.927 866.993 263.848 859.346 267.853 848.626C322.893 700.389 349.258 597.79 310.411 544.169C293.088 520.196 261.612 503.87 217.457 492.23C167.995 479.223 102.734 472.002 23.5647 466.552C9.87841 465.611 -0.0975656 456.012 0.000719904 443.857C0.000719904 430.177 13.0481 414.703 32.3121 413.425C388.892 390.393 474.474 335.068 642.763 18.5239C648.636 7.37817 661.192 0 674.043 0C682.79 0 690.53 3.47603 695.174 9.44137C698.049 13.0071 702.153 20.6544 698.147 31.3741C643.009 179.611 616.669 282.21 655.59 335.831C657.162 337.961 658.858 340.092 660.701 342.11C701.022 388.016 798.988 403.558 942.313 413.425C956 414.367 965.976 423.965 965.976 436.12L966 436.143Z" fill="#0B1215"/>
<path d="M966 436.143C965.902 449.823 952.953 465.297 933.59 466.575C577.01 489.607 491.428 544.932 323.237 861.476C317.266 872.622 304.71 880 291.958 880C283.21 880 275.471 876.524 270.728 870.559C267.927 866.993 263.848 859.346 267.853 848.626C322.893 700.389 349.258 597.79 310.411 544.169C293.088 520.196 261.612 503.87 217.457 492.23C167.995 479.223 102.734 472.002 23.5647 466.552C9.87841 465.611 -0.0975656 456.012 0.000719904 443.857C0.000719904 430.177 13.0481 414.703 32.3121 413.425C388.892 390.393 474.474 335.068 642.763 18.5239C648.636 7.37817 661.192 0 674.043 0C682.79 0 690.53 3.47603 695.174 9.44137C698.049 13.0071 702.153 20.6544 698.147 31.3741C643.009 179.611 616.669 282.21 655.59 335.831C657.162 337.961 658.858 340.092 660.701 342.11C701.022 388.016 798.988 403.558 942.313 413.425C956 414.367 965.976 423.965 965.976 436.12L966 436.143Z" fill="#F3F4F6"/>
</svg>
