<svg width="890" height="336" viewBox="0 0 890 336" fill="none" xmlns="http://www.w3.org/2000/svg">
<g filter="url(#filter0_d_2035_418)">
<path d="M40.76 129V38.12H77.112L85.176 79.592L93.496 38.12H129.72V129H105.4C105.4 112.36 105.4 93.288 106.68 63.848L91.704 129H76.344L61.24 65.64C62.52 94.44 62.52 113 62.52 129H40.76Z" fill="#0B1215"/>
<path d="M40.76 129V38.12H77.112L85.176 79.592L93.496 38.12H129.72V129H105.4C105.4 112.36 105.4 93.288 106.68 63.848L91.704 129H76.344L61.24 65.64C62.52 94.44 62.52 113 62.52 129H40.76Z" fill="#F3F4F6"/>
<path d="M157.772 129V96.744L134.22 38.12H160.972L171.212 71.528L181.324 38.12H204.62L182.092 98.024V129H157.772Z" fill="#0B1215"/>
<path d="M157.772 129V96.744L134.22 38.12H160.972L171.212 71.528L181.324 38.12H204.62L182.092 98.024V129H157.772Z" fill="#F3F4F6"/>
<path d="M231.101 36.712C253.885 36.712 260.413 47.08 260.413 65.64L238.909 68.456V64.104C238.909 57.576 237.117 54.632 232.637 54.632C229.053 54.632 227.005 56.68 227.005 59.752C227.005 73.064 262.717 75.112 262.717 104.68C262.717 123.24 247.229 130.408 231.997 130.408C219.325 130.408 202.045 125.8 202.045 104.424C202.045 100.584 202.941 96.104 203.965 93.032L225.213 96.744C224.701 98.664 224.445 101.096 224.445 102.76C224.445 108.776 227.517 111.208 231.229 111.208C234.941 111.208 237.117 109.032 237.117 105.32C237.117 90.856 202.045 89.192 202.045 61.416C202.045 46.312 212.925 36.712 231.101 36.712Z" fill="#0B1215"/>
<path d="M231.101 36.712C253.885 36.712 260.413 47.08 260.413 65.64L238.909 68.456V64.104C238.909 57.576 237.117 54.632 232.637 54.632C229.053 54.632 227.005 56.68 227.005 59.752C227.005 73.064 262.717 75.112 262.717 104.68C262.717 123.24 247.229 130.408 231.997 130.408C219.325 130.408 202.045 125.8 202.045 104.424C202.045 100.584 202.941 96.104 203.965 93.032L225.213 96.744C224.701 98.664 224.445 101.096 224.445 102.76C224.445 108.776 227.517 111.208 231.229 111.208C234.941 111.208 237.117 109.032 237.117 105.32C237.117 90.856 202.045 89.192 202.045 61.416C202.045 46.312 212.925 36.712 231.101 36.712Z" fill="#F3F4F6"/>
<path d="M280.28 129V57.064H263.64V38.12H321.24V57.064H304.6V129H280.28Z" fill="#0B1215"/>
<path d="M280.28 129V57.064H263.64V38.12H321.24V57.064H304.6V129H280.28Z" fill="#F3F4F6"/>
<path d="M327.635 129V38.12H376.787V57.064H351.955V73.32H366.675V92.52H351.955V108.776H376.787V129H327.635Z" fill="#0B1215"/>
<path d="M327.635 129V38.12H376.787V57.064H351.955V73.32H366.675V92.52H351.955V108.776H376.787V129H327.635Z" fill="#F3F4F6"/>
<path d="M412.655 73.96C418.031 73.96 419.951 71.656 419.951 65.512C419.951 59.112 418.031 57.064 412.271 57.064H409.455V73.96H412.655ZM413.679 38.12C435.823 38.12 446.191 45.928 446.191 62.824C446.191 73.576 441.455 81.256 432.751 84.2C440.431 86.504 443.887 94.312 445.039 105.704L447.471 129H423.151L420.847 105.96C419.951 96.744 418.543 93.16 412.655 93.16C411.631 93.16 410.479 93.288 409.455 93.416V129H385.135V38.12H413.679Z" fill="#0B1215"/>
<path d="M412.655 73.96C418.031 73.96 419.951 71.656 419.951 65.512C419.951 59.112 418.031 57.064 412.271 57.064H409.455V73.96H412.655ZM413.679 38.12C435.823 38.12 446.191 45.928 446.191 62.824C446.191 73.576 441.455 81.256 432.751 84.2C440.431 86.504 443.887 94.312 445.039 105.704L447.471 129H423.151L420.847 105.96C419.951 96.744 418.543 93.16 412.655 93.16C411.631 93.16 410.479 93.288 409.455 93.416V129H385.135V38.12H413.679Z" fill="#F3F4F6"/>
<path d="M466.522 129V96.744L442.97 38.12H469.722L479.962 71.528L490.074 38.12H513.37L490.842 98.024V129H466.522Z" fill="#0B1215"/>
<path d="M466.522 129V96.744L442.97 38.12H469.722L479.962 71.528L490.074 38.12H513.37L490.842 98.024V129H466.522Z" fill="#F3F4F6"/>
<path d="M567.155 130.28C545.907 130.28 536.435 112.872 536.435 82.92C536.435 53.608 544.883 36.84 568.435 36.84C580.339 36.84 595.955 41.832 595.955 67.176V74.6H574.195V66.408C574.195 60.136 573.043 56.168 568.435 56.168C563.827 56.168 562.675 60.136 562.675 66.408V100.584C562.675 107.368 564.595 109.928 568.435 109.928C572.531 109.928 574.195 107.24 574.195 98.536V86.76H595.955V95.72C595.955 117.992 590.451 130.28 567.155 130.28Z" fill="#0B1215"/>
<path d="M567.155 130.28C545.907 130.28 536.435 112.872 536.435 82.92C536.435 53.608 544.883 36.84 568.435 36.84C580.339 36.84 595.955 41.832 595.955 67.176V74.6H574.195V66.408C574.195 60.136 573.043 56.168 568.435 56.168C563.827 56.168 562.675 60.136 562.675 66.408V100.584C562.675 107.368 564.595 109.928 568.435 109.928C572.531 109.928 574.195 107.24 574.195 98.536V86.76H595.955V95.72C595.955 117.992 590.451 130.28 567.155 130.28Z" fill="#F3F4F6"/>
<path d="M604.885 129V38.12H629.205V108.776H654.037V129H604.885Z" fill="#0B1215"/>
<path d="M604.885 129V38.12H629.205V108.776H654.037V129H604.885Z" fill="#F3F4F6"/>
<path d="M699.523 129L696.451 109.16H681.731L679.043 129H655.235L674.179 38.12H706.819L725.635 129H699.523ZM684.291 91.24H693.635L688.643 59.624L684.291 91.24Z" fill="#0B1215"/>
<path d="M699.523 129L696.451 109.16H681.731L679.043 129H655.235L674.179 38.12H706.819L725.635 129H699.523ZM684.291 91.24H693.635L688.643 59.624L684.291 91.24Z" fill="#F3F4F6"/>
<path d="M754.101 36.712C776.885 36.712 783.413 47.08 783.413 65.64L761.909 68.456V64.104C761.909 57.576 760.117 54.632 755.637 54.632C752.053 54.632 750.005 56.68 750.005 59.752C750.005 73.064 785.717 75.112 785.717 104.68C785.717 123.24 770.229 130.408 754.997 130.408C742.325 130.408 725.045 125.8 725.045 104.424C725.045 100.584 725.941 96.104 726.965 93.032L748.213 96.744C747.701 98.664 747.445 101.096 747.445 102.76C747.445 108.776 750.517 111.208 754.229 111.208C757.941 111.208 760.117 109.032 760.117 105.32C760.117 90.856 725.045 89.192 725.045 61.416C725.045 46.312 735.925 36.712 754.101 36.712Z" fill="#0B1215"/>
<path d="M754.101 36.712C776.885 36.712 783.413 47.08 783.413 65.64L761.909 68.456V64.104C761.909 57.576 760.117 54.632 755.637 54.632C752.053 54.632 750.005 56.68 750.005 59.752C750.005 73.064 785.717 75.112 785.717 104.68C785.717 123.24 770.229 130.408 754.997 130.408C742.325 130.408 725.045 125.8 725.045 104.424C725.045 100.584 725.941 96.104 726.965 93.032L748.213 96.744C747.701 98.664 747.445 101.096 747.445 102.76C747.445 108.776 750.517 111.208 754.229 111.208C757.941 111.208 760.117 109.032 760.117 105.32C760.117 90.856 725.045 89.192 725.045 61.416C725.045 46.312 735.925 36.712 754.101 36.712Z" fill="#F3F4F6"/>
<path d="M818.226 36.712C841.01 36.712 847.538 47.08 847.538 65.64L826.034 68.456V64.104C826.034 57.576 824.242 54.632 819.762 54.632C816.178 54.632 814.13 56.68 814.13 59.752C814.13 73.064 849.842 75.112 849.842 104.68C849.842 123.24 834.354 130.408 819.122 130.408C806.45 130.408 789.17 125.8 789.17 104.424C789.17 100.584 790.066 96.104 791.09 93.032L812.338 96.744C811.826 98.664 811.57 101.096 811.57 102.76C811.57 108.776 814.642 111.208 818.354 111.208C822.066 111.208 824.242 109.032 824.242 105.32C824.242 90.856 789.17 89.192 789.17 61.416C789.17 46.312 800.05 36.712 818.226 36.712Z" fill="#0B1215"/>
<path d="M818.226 36.712C841.01 36.712 847.538 47.08 847.538 65.64L826.034 68.456V64.104C826.034 57.576 824.242 54.632 819.762 54.632C816.178 54.632 814.13 56.68 814.13 59.752C814.13 73.064 849.842 75.112 849.842 104.68C849.842 123.24 834.354 130.408 819.122 130.408C806.45 130.408 789.17 125.8 789.17 104.424C789.17 100.584 790.066 96.104 791.09 93.032L812.338 96.744C811.826 98.664 811.57 101.096 811.57 102.76C811.57 108.776 814.642 111.208 818.354 111.208C822.066 111.208 824.242 109.032 824.242 105.32C824.242 90.856 789.17 89.192 789.17 61.416C789.17 46.312 800.05 36.712 818.226 36.712Z" fill="#F3F4F6"/>
<path d="M68.28 186.96C73.656 186.96 75.576 184.656 75.576 178.512C75.576 172.112 73.656 170.064 67.896 170.064H65.08V186.96H68.28ZM69.304 151.12C91.448 151.12 101.816 158.928 101.816 175.824C101.816 186.576 97.08 194.256 88.376 197.2C96.056 199.504 99.512 207.312 100.664 218.704L103.096 242H78.776L76.472 218.96C75.576 209.744 74.168 206.16 68.28 206.16C67.256 206.16 66.104 206.288 65.08 206.416V242H40.76V151.12H69.304Z" fill="#0B1215"/>
<path d="M68.28 186.96C73.656 186.96 75.576 184.656 75.576 178.512C75.576 172.112 73.656 170.064 67.896 170.064H65.08V186.96H68.28ZM69.304 151.12C91.448 151.12 101.816 158.928 101.816 175.824C101.816 186.576 97.08 194.256 88.376 197.2C96.056 199.504 99.512 207.312 100.664 218.704L103.096 242H78.776L76.472 218.96C75.576 209.744 74.168 206.16 68.28 206.16C67.256 206.16 66.104 206.288 65.08 206.416V242H40.76V151.12H69.304Z" fill="#F3F4F6"/>
<path d="M110.76 242V151.12H159.912V170.064H135.08V186.32H149.8V205.52H135.08V221.776H159.912V242H110.76Z" fill="#0B1215"/>
<path d="M110.76 242V151.12H159.912V170.064H135.08V186.32H149.8V205.52H135.08V221.776H159.912V242H110.76Z" fill="#F3F4F6"/>
<path d="M192.53 243.28C171.282 243.28 161.81 225.872 161.81 195.92C161.81 166.608 170.258 149.84 193.81 149.84C205.714 149.84 221.33 154.832 221.33 180.176V187.6H199.57V179.408C199.57 173.136 198.418 169.168 193.81 169.168C189.202 169.168 188.05 173.136 188.05 179.408V213.584C188.05 220.368 189.97 222.928 193.81 222.928C197.906 222.928 199.57 220.24 199.57 211.536V199.76H221.33V208.72C221.33 230.992 215.826 243.28 192.53 243.28Z" fill="#0B1215"/>
<path d="M192.53 243.28C171.282 243.28 161.81 225.872 161.81 195.92C161.81 166.608 170.258 149.84 193.81 149.84C205.714 149.84 221.33 154.832 221.33 180.176V187.6H199.57V179.408C199.57 173.136 198.418 169.168 193.81 169.168C189.202 169.168 188.05 173.136 188.05 179.408V213.584C188.05 220.368 189.97 222.928 193.81 222.928C197.906 222.928 199.57 220.24 199.57 211.536V199.76H221.33V208.72C221.33 230.992 215.826 243.28 192.53 243.28Z" fill="#F3F4F6"/>
<path d="M259.685 243.408C236.133 243.408 227.685 226 227.685 195.92C227.685 166.48 236.133 149.84 259.685 149.712C283.237 149.584 291.685 166.48 291.685 195.92C291.685 226 283.237 243.408 259.685 243.408ZM259.685 222.928C264.293 222.928 265.445 218.448 265.445 211.408V180.432C265.445 173.392 264.293 168.912 259.685 168.912C255.077 168.912 253.925 173.392 253.925 180.432V211.408C253.925 218.448 255.077 222.928 259.685 222.928Z" fill="#0B1215"/>
<path d="M259.685 243.408C236.133 243.408 227.685 226 227.685 195.92C227.685 166.48 236.133 149.84 259.685 149.712C283.237 149.584 291.685 166.48 291.685 195.92C291.685 226 283.237 243.408 259.685 243.408ZM259.685 222.928C264.293 222.928 265.445 218.448 265.445 211.408V180.432C265.445 173.392 264.293 168.912 259.685 168.912C255.077 168.912 253.925 173.392 253.925 180.432V211.408C253.925 218.448 255.077 222.928 259.685 222.928Z" fill="#F3F4F6"/>
<path d="M327.53 186.96C332.906 186.96 334.826 184.656 334.826 178.512C334.826 172.112 332.906 170.064 327.146 170.064H324.33V186.96H327.53ZM328.554 151.12C350.698 151.12 361.066 158.928 361.066 175.824C361.066 186.576 356.33 194.256 347.626 197.2C355.306 199.504 358.762 207.312 359.914 218.704L362.346 242H338.026L335.722 218.96C334.826 209.744 333.418 206.16 327.53 206.16C326.506 206.16 325.354 206.288 324.33 206.416V242H300.01V151.12H328.554Z" fill="#0B1215"/>
<path d="M327.53 186.96C332.906 186.96 334.826 184.656 334.826 178.512C334.826 172.112 332.906 170.064 327.146 170.064H324.33V186.96H327.53ZM328.554 151.12C350.698 151.12 361.066 158.928 361.066 175.824C361.066 186.576 356.33 194.256 347.626 197.2C355.306 199.504 358.762 207.312 359.914 218.704L362.346 242H338.026L335.722 218.96C334.826 209.744 333.418 206.16 327.53 206.16C326.506 206.16 325.354 206.288 324.33 206.416V242H300.01V151.12H328.554Z" fill="#F3F4F6"/>
<path d="M394.33 221.776C395.226 222.032 396.122 222.16 397.146 222.16C403.29 222.16 405.338 217.552 405.338 211.408V182.352C405.338 175.056 403.29 170.064 397.402 170.064H394.33V221.776ZM370.01 242V151.12H398.17C422.618 151.12 431.578 168.912 431.578 195.92C431.578 223.568 423.002 242 399.45 242H370.01Z" fill="#0B1215"/>
<path d="M394.33 221.776C395.226 222.032 396.122 222.16 397.146 222.16C403.29 222.16 405.338 217.552 405.338 211.408V182.352C405.338 175.056 403.29 170.064 397.402 170.064H394.33V221.776ZM370.01 242V151.12H398.17C422.618 151.12 431.578 168.912 431.578 195.92C431.578 223.568 423.002 242 399.45 242H370.01Z" fill="#F3F4F6"/>
<path d="M465.101 149.712C487.885 149.712 494.413 160.08 494.413 178.64L472.909 181.456V177.104C472.909 170.576 471.117 167.632 466.637 167.632C463.053 167.632 461.005 169.68 461.005 172.752C461.005 186.064 496.717 188.112 496.717 217.68C496.717 236.24 481.229 243.408 465.997 243.408C453.325 243.408 436.045 238.8 436.045 217.424C436.045 213.584 436.941 209.104 437.965 206.032L459.213 209.744C458.701 211.664 458.445 214.096 458.445 215.76C458.445 221.776 461.517 224.208 465.229 224.208C468.941 224.208 471.117 222.032 471.117 218.32C471.117 203.856 436.045 202.192 436.045 174.416C436.045 159.312 446.925 149.712 465.101 149.712Z" fill="#0B1215"/>
<path d="M465.101 149.712C487.885 149.712 494.413 160.08 494.413 178.64L472.909 181.456V177.104C472.909 170.576 471.117 167.632 466.637 167.632C463.053 167.632 461.005 169.68 461.005 172.752C461.005 186.064 496.717 188.112 496.717 217.68C496.717 236.24 481.229 243.408 465.997 243.408C453.325 243.408 436.045 238.8 436.045 217.424C436.045 213.584 436.941 209.104 437.965 206.032L459.213 209.744C458.701 211.664 458.445 214.096 458.445 215.76C458.445 221.776 461.517 224.208 465.229 224.208C468.941 224.208 471.117 222.032 471.117 218.32C471.117 203.856 436.045 202.192 436.045 174.416C436.045 159.312 446.925 149.712 465.101 149.712Z" fill="#F3F4F6"/>
<path d="M55.296 283.928L57.792 269.752H61.28L58.784 283.928C57.888 289.08 54.304 291.736 48.896 291.736C44.512 291.736 41.856 289.88 41.856 286.04C41.856 285.464 41.92 284.856 42.048 284.184L44.576 269.752H48.064L45.568 283.896C45.472 284.472 45.408 284.984 45.408 285.464C45.408 287.96 46.848 288.92 49.312 288.92C52.672 288.92 54.72 287.256 55.296 283.928Z" fill="#0B1215"/>
<path d="M55.296 283.928L57.792 269.752H61.28L58.784 283.928C57.888 289.08 54.304 291.736 48.896 291.736C44.512 291.736 41.856 289.88 41.856 286.04C41.856 285.464 41.92 284.856 42.048 284.184L44.576 269.752H48.064L45.568 283.896C45.472 284.472 45.408 284.984 45.408 285.464C45.408 287.96 46.848 288.92 49.312 288.92C52.672 288.92 54.72 287.256 55.296 283.928Z" fill="#F3F4F6"/>
<path d="M76.228 291H73.06L65.38 274.872L62.532 291H59.332L63.076 269.752H66.724L73.988 285.464L76.772 269.752H79.972L76.228 291Z" fill="#0B1215"/>
<path d="M76.228 291H73.06L65.38 274.872L62.532 291H59.332L63.076 269.752H66.724L73.988 285.464L76.772 269.752H79.972L76.228 291Z" fill="#F3F4F6"/>
<path d="M93.7323 291H77.9883L81.7323 269.752H96.9643L96.4523 272.632H84.5483L83.5243 278.424H94.5643L94.0523 281.304H83.0123L81.8283 288.088H94.2443L93.7323 291Z" fill="#0B1215"/>
<path d="M93.7323 291H77.9883L81.7323 269.752H96.9643L96.4523 272.632H84.5483L83.5243 278.424H94.5643L94.0523 281.304H83.0123L81.8283 288.088H94.2443L93.7323 291Z" fill="#F3F4F6"/>
<path d="M112.657 291H108.561L104.945 282.904L98.2568 291H94.1928L103.345 280.152L98.3208 269.752H102.289L105.777 277.464L111.953 269.752H115.985L107.313 280.024L112.657 291Z" fill="#0B1215"/>
<path d="M112.657 291H108.561L104.945 282.904L98.2568 291H94.1928L103.345 280.152L98.3208 269.752H102.289L105.777 277.464L111.953 269.752H115.985L107.313 280.024L112.657 291Z" fill="#F3F4F6"/>
<path d="M117.287 291H113.863L117.607 269.752H126.791C130.311 269.752 132.327 272.248 132.327 275.448C132.327 279.832 128.999 283.192 124.423 283.192H118.663L117.287 291ZM119.143 280.408H124.391C127.623 280.408 129.287 278.328 129.287 275.8C129.287 273.4 128.199 272.6 125.767 272.6H120.519L119.143 280.408Z" fill="#0B1215"/>
<path d="M117.287 291H113.863L117.607 269.752H126.791C130.311 269.752 132.327 272.248 132.327 275.448C132.327 279.832 128.999 283.192 124.423 283.192H118.663L117.287 291ZM119.143 280.408H124.391C127.623 280.408 129.287 278.328 129.287 275.8C129.287 273.4 128.199 272.6 125.767 272.6H120.519L119.143 280.408Z" fill="#F3F4F6"/>
<path d="M145.362 291H130.738L134.482 269.752H137.906L134.674 288.024H145.874L145.362 291Z" fill="#0B1215"/>
<path d="M145.362 291H130.738L134.482 269.752H137.906L134.674 288.024H145.874L145.362 291Z" fill="#F3F4F6"/>
<path d="M160.758 283.416L158.966 273.496L153.686 283.416H160.758ZM165.654 291H162.038L161.238 286.232H152.246L149.654 291H145.942L157.654 269.752H161.558L165.654 291Z" fill="#0B1215"/>
<path d="M160.758 283.416L158.966 273.496L153.686 283.416H160.758ZM165.654 291H162.038L161.238 286.232H152.246L149.654 291H145.942L157.654 269.752H161.558L165.654 291Z" fill="#F3F4F6"/>
<path d="M170.256 291H166.832L170.576 269.752H174L170.256 291Z" fill="#0B1215"/>
<path d="M170.256 291H166.832L170.576 269.752H174L170.256 291Z" fill="#F3F4F6"/>
<path d="M188.884 291H185.716L178.036 274.872L175.188 291H171.988L175.732 269.752H179.38L186.644 285.464L189.428 269.752H192.628L188.884 291Z" fill="#0B1215"/>
<path d="M188.884 291H185.716L178.036 274.872L175.188 291H171.988L175.732 269.752H179.38L186.644 285.464L189.428 269.752H192.628L188.884 291Z" fill="#F3F4F6"/>
<path d="M204.821 283.416L203.029 273.496L197.749 283.416H204.821ZM209.717 291H206.101L205.301 286.232H196.309L193.717 291H190.005L201.717 269.752H205.621L209.717 291Z" fill="#0B1215"/>
<path d="M204.821 283.416L203.029 273.496L197.749 283.416H204.821ZM209.717 291H206.101L205.301 286.232H196.309L193.717 291H190.005L201.717 269.752H205.621L209.717 291Z" fill="#F3F4F6"/>
<path d="M222.415 281.176H215.919L214.671 288.216H220.815C223.919 288.216 225.711 286.328 225.711 283.896C225.711 281.688 224.431 281.176 222.415 281.176ZM223.567 272.6H217.423L216.399 278.392H222.831C225.359 278.392 226.703 277.08 226.703 274.872C226.703 273.048 225.775 272.6 223.567 272.6ZM220.079 291H210.895L214.639 269.752H224.687C228.303 269.752 230.063 271.544 230.063 274.296C230.063 277.176 228.143 279 226.223 279.512C227.695 279.96 229.039 281.176 229.039 283.672C229.039 288.024 226.127 291 220.079 291Z" fill="#0B1215"/>
<path d="M222.415 281.176H215.919L214.671 288.216H220.815C223.919 288.216 225.711 286.328 225.711 283.896C225.711 281.688 224.431 281.176 222.415 281.176ZM223.567 272.6H217.423L216.399 278.392H222.831C225.359 278.392 226.703 277.08 226.703 274.872C226.703 273.048 225.775 272.6 223.567 272.6ZM220.079 291H210.895L214.639 269.752H224.687C228.303 269.752 230.063 271.544 230.063 274.296C230.063 277.176 228.143 279 226.223 279.512C227.695 279.96 229.039 281.176 229.039 283.672C229.039 288.024 226.127 291 220.079 291Z" fill="#F3F4F6"/>
<path d="M243.456 291H228.832L232.576 269.752H236L232.768 288.024H243.968L243.456 291Z" fill="#0B1215"/>
<path d="M243.456 291H228.832L232.576 269.752H236L232.768 288.024H243.968L243.456 291Z" fill="#F3F4F6"/>
<path d="M248.92 291H245.496L246.968 282.648L241.624 269.752H245.528L249.24 279.128L256.024 269.752H260.088L250.392 282.68L248.92 291Z" fill="#0B1215"/>
<path d="M248.92 291H245.496L246.968 282.648L241.624 269.752H245.528L249.24 279.128L256.024 269.752H260.088L250.392 282.68L248.92 291Z" fill="#F3F4F6"/>
<path d="M284.091 291H281.243L281.755 287.768C280.379 290.008 277.723 291.736 274.171 291.736C269.179 291.736 266.459 287.48 266.459 282.424C266.459 275.416 271.099 269.048 278.875 269.048C283.515 269.048 286.683 271.736 286.683 275.608C286.683 275.832 286.683 276.056 286.651 276.312H283.227V275.864C283.227 273.176 281.083 271.896 278.363 271.896C273.371 271.896 269.947 276.312 269.947 282.168C269.947 286.232 271.579 288.856 275.291 288.856C279.099 288.856 281.787 285.848 282.363 282.584H276.923L277.435 279.832H286.075L284.091 291Z" fill="#0B1215"/>
<path d="M284.091 291H281.243L281.755 287.768C280.379 290.008 277.723 291.736 274.171 291.736C269.179 291.736 266.459 287.48 266.459 282.424C266.459 275.416 271.099 269.048 278.875 269.048C283.515 269.048 286.683 271.736 286.683 275.608C286.683 275.832 286.683 276.056 286.651 276.312H283.227V275.864C283.227 273.176 281.083 271.896 278.363 271.896C273.371 271.896 269.947 276.312 269.947 282.168C269.947 286.232 271.579 288.856 275.291 288.856C279.099 288.856 281.787 285.848 282.363 282.584H276.923L277.435 279.832H286.075L284.091 291Z" fill="#F3F4F6"/>
<path d="M295.975 288.824C300.583 288.824 304.167 285.272 304.167 278.424C304.167 273.72 302.375 272.088 298.919 272.088C293.607 272.088 290.567 276.408 290.567 282.776C290.567 287.384 292.487 288.824 295.975 288.824ZM295.463 291.736C290.055 291.736 287.143 288.6 287.143 283.096C287.143 274.776 291.847 269.048 299.463 269.048C304.775 269.048 307.623 272.408 307.623 278.008C307.623 286.616 303.143 291.736 295.463 291.736Z" fill="#0B1215"/>
<path d="M295.975 288.824C300.583 288.824 304.167 285.272 304.167 278.424C304.167 273.72 302.375 272.088 298.919 272.088C293.607 272.088 290.567 276.408 290.567 282.776C290.567 287.384 292.487 288.824 295.975 288.824ZM295.463 291.736C290.055 291.736 287.143 288.6 287.143 283.096C287.143 274.776 291.847 269.048 299.463 269.048C304.775 269.048 307.623 272.408 307.623 278.008C307.623 286.616 303.143 291.736 295.463 291.736Z" fill="#F3F4F6"/>
<path d="M317.1 288.824C321.708 288.824 325.292 285.272 325.292 278.424C325.292 273.72 323.5 272.088 320.044 272.088C314.732 272.088 311.692 276.408 311.692 282.776C311.692 287.384 313.612 288.824 317.1 288.824ZM316.588 291.736C311.18 291.736 308.268 288.6 308.268 283.096C308.268 274.776 312.972 269.048 320.588 269.048C325.9 269.048 328.748 272.408 328.748 278.008C328.748 286.616 324.268 291.736 316.588 291.736Z" fill="#0B1215"/>
<path d="M317.1 288.824C321.708 288.824 325.292 285.272 325.292 278.424C325.292 273.72 323.5 272.088 320.044 272.088C314.732 272.088 311.692 276.408 311.692 282.776C311.692 287.384 313.612 288.824 317.1 288.824ZM316.588 291.736C311.18 291.736 308.268 288.6 308.268 283.096C308.268 274.776 312.972 269.048 320.588 269.048C325.9 269.048 328.748 272.408 328.748 278.008C328.748 286.616 324.268 291.736 316.588 291.736Z" fill="#F3F4F6"/>
<path d="M331.921 288.216H336.593C341.841 288.216 344.401 283.96 344.401 278.168C344.401 273.72 342.609 272.6 338.929 272.6H334.673L331.921 288.216ZM336.785 291H328.113L331.857 269.752H339.889C344.753 269.752 347.889 272.952 347.889 278.168C347.889 285.4 343.057 291 336.785 291Z" fill="#0B1215"/>
<path d="M331.921 288.216H336.593C341.841 288.216 344.401 283.96 344.401 278.168C344.401 273.72 342.609 272.6 338.929 272.6H334.673L331.921 288.216ZM336.785 291H328.113L331.857 269.752H339.889C344.753 269.752 347.889 272.952 347.889 278.168C347.889 285.4 343.057 291 336.785 291Z" fill="#F3F4F6"/>
<path d="M374.928 291H371.728L374.576 274.872L366.576 291H363.152L360.88 274.904L358.032 291H354.832L358.576 269.752H363.536L365.616 286.68L373.648 269.752H378.672L374.928 291Z" fill="#0B1215"/>
<path d="M374.928 291H371.728L374.576 274.872L366.576 291H363.152L360.88 274.904L358.032 291H354.832L358.576 269.752H363.536L365.616 286.68L373.648 269.752H378.672L374.928 291Z" fill="#F3F4F6"/>
<path d="M391.202 283.928L393.698 269.752H397.186L394.69 283.928C393.794 289.08 390.21 291.736 384.802 291.736C380.418 291.736 377.762 289.88 377.762 286.04C377.762 285.464 377.826 284.856 377.954 284.184L380.482 269.752H383.97L381.474 283.896C381.378 284.472 381.314 284.984 381.314 285.464C381.314 287.96 382.754 288.92 385.218 288.92C388.578 288.92 390.626 287.256 391.202 283.928Z" fill="#0B1215"/>
<path d="M391.202 283.928L393.698 269.752H397.186L394.69 283.928C393.794 289.08 390.21 291.736 384.802 291.736C380.418 291.736 377.762 289.88 377.762 286.04C377.762 285.464 377.826 284.856 377.954 284.184L380.482 269.752H383.97L381.474 283.896C381.378 284.472 381.314 284.984 381.314 285.464C381.314 287.96 382.754 288.92 385.218 288.92C388.578 288.92 390.626 287.256 391.202 283.928Z" fill="#F3F4F6"/>
<path d="M413.83 276.024H410.598C410.63 275.704 410.662 275.384 410.662 275.096C410.662 272.76 409.19 271.96 406.246 271.96C402.79 271.96 401.094 273.4 401.094 275.48C401.094 277.336 402.342 278.072 404.39 278.52C408.518 279.448 412.87 279.608 412.87 284.6C412.87 289.016 408.55 291.736 403.782 291.736C398.406 291.736 395.718 289.784 395.718 285.976C395.718 285.56 395.75 285.112 395.814 284.632H399.11C399.078 284.92 399.046 285.208 399.046 285.464C399.046 288.024 400.87 288.984 403.846 288.984C407.27 288.984 409.478 287.32 409.478 284.792C409.478 283.128 408.582 282.36 406.278 281.912C400.678 280.888 397.862 279.704 397.862 275.864C397.862 272.312 400.966 269.048 406.758 269.048C411.334 269.048 413.926 271.256 413.926 274.776C413.926 275.16 413.894 275.608 413.83 276.024Z" fill="#0B1215"/>
<path d="M413.83 276.024H410.598C410.63 275.704 410.662 275.384 410.662 275.096C410.662 272.76 409.19 271.96 406.246 271.96C402.79 271.96 401.094 273.4 401.094 275.48C401.094 277.336 402.342 278.072 404.39 278.52C408.518 279.448 412.87 279.608 412.87 284.6C412.87 289.016 408.55 291.736 403.782 291.736C398.406 291.736 395.718 289.784 395.718 285.976C395.718 285.56 395.75 285.112 395.814 284.632H399.11C399.078 284.92 399.046 285.208 399.046 285.464C399.046 288.024 400.87 288.984 403.846 288.984C407.27 288.984 409.478 287.32 409.478 284.792C409.478 283.128 408.582 282.36 406.278 281.912C400.678 280.888 397.862 279.704 397.862 275.864C397.862 272.312 400.966 269.048 406.758 269.048C411.334 269.048 413.926 271.256 413.926 274.776C413.926 275.16 413.894 275.608 413.83 276.024Z" fill="#F3F4F6"/>
<path d="M416.412 291H412.988L416.732 269.752H420.156L416.412 291Z" fill="#0B1215"/>
<path d="M416.412 291H412.988L416.732 269.752H420.156L416.412 291Z" fill="#F3F4F6"/>
<path d="M434.273 283.704H437.697C435.969 288.536 432.16 291.736 427.361 291.736C422.689 291.736 419.457 288.696 419.457 283C419.457 274.776 424.417 269.048 431.424 269.048C436.32 269.048 438.977 272.088 438.977 276.056C438.977 276.28 438.945 276.504 438.945 276.728H435.521C435.521 276.504 435.553 276.312 435.553 276.12C435.553 273.112 433.761 272.024 430.945 272.024C425.793 272.024 422.977 276.632 422.977 282.616C422.977 287.032 424.673 288.76 427.777 288.76C431.137 288.76 433.249 286.84 434.273 283.704Z" fill="#0B1215"/>
<path d="M434.273 283.704H437.697C435.969 288.536 432.16 291.736 427.361 291.736C422.689 291.736 419.457 288.696 419.457 283C419.457 274.776 424.417 269.048 431.424 269.048C436.32 269.048 438.977 272.088 438.977 276.056C438.977 276.28 438.945 276.504 438.945 276.728H435.521C435.521 276.504 435.553 276.312 435.553 276.12C435.553 273.112 433.761 272.024 430.945 272.024C425.793 272.024 422.977 276.632 422.977 282.616C422.977 287.032 424.673 288.76 427.777 288.76C431.137 288.76 433.249 286.84 434.273 283.704Z" fill="#F3F4F6"/>
<path d="M440.133 291H436.645L437.316 287.192H440.805L440.133 291Z" fill="#0B1215"/>
<path d="M440.133 291H436.645L437.316 287.192H440.805L440.133 291Z" fill="#F3F4F6"/>
</g>
<defs>
<filter id="filter0_d_2035_418" x="0.860008" y="0.812004" width="888.882" height="334.824" filterUnits="userSpaceOnUse" color-interpolation-filters="sRGB">
<feFlood flood-opacity="0" result="BackgroundImageFix"/>
<feColorMatrix in="SourceAlpha" type="matrix" values="0 0 0 0 0 0 0 0 0 0 0 0 0 0 0 0 0 0 127 0" result="hardAlpha"/>
<feOffset dy="4"/>
<feGaussianBlur stdDeviation="19.95"/>
<feComposite in2="hardAlpha" operator="out"/>
<feColorMatrix type="matrix" values="0 0 0 0 0.0431373 0 0 0 0 0.0705882 0 0 0 0 0.0823529 0 0 0 0.23 0"/>
<feBlend mode="normal" in2="BackgroundImageFix" result="effect1_dropShadow_2035_418"/>
<feBlend mode="normal" in="SourceGraphic" in2="effect1_dropShadow_2035_418" result="shape"/>
</filter>
</defs>
</svg>
