<svg width="27" height="19" viewBox="0 0 27 19" fill="none" xmlns="http://www.w3.org/2000/svg">
<path d="M26.0271 3.98955C26.0271 3.98955 25.7703 2.17705 24.9796 1.3812C23.9784 0.333747 22.859 0.328612 22.3456 0.266997C18.6692 5.96046e-08 13.1496 0 13.1496 0H13.1393C13.1393 0 7.61969 5.96046e-08 3.94334 0.266997C3.42989 0.328612 2.31055 0.333747 1.30931 1.3812C0.51859 2.17705 0.266998 3.98955 0.266998 3.98955C0.266998 3.98955 0 6.12039 0 8.24609V10.2383C0 12.364 0.261871 14.4948 0.261871 14.4948C0.261871 14.4948 0.518597 16.3073 1.30418 17.1032C2.30542 18.1507 3.61986 18.1147 4.2052 18.2277C6.31037 18.4279 13.1445 18.4895 13.1445 18.4895C13.1445 18.4895 18.6692 18.4793 22.3456 18.2174C22.859 18.1558 23.9784 18.1507 24.9796 17.1032C25.7703 16.3073 26.0271 14.4948 26.0271 14.4948C26.0271 14.4948 26.2889 12.3691 26.2889 10.2383V8.24609C26.2889 6.12039 26.0271 3.98955 26.0271 3.98955ZM10.4283 12.6567V5.26805L17.5294 8.9752L10.4283 12.6567Z" fill="white"/>
</svg>
